Coordinates
version=1
nRows=14
nColumns=36
inDegrees=yes

Units are S.I. units (second, meters, Newtons, ...)
If the header above contains a line with 'inDegrees', this indicates whether rotational values are in degrees (yes) or radians (no).

endheader
time	pelvis_tilt	pelvis_list	pelvis_rotation	pelvis_tx	pelvis_ty	pelvis_tz	hip_flexion_r	hip_adduction_r	hip_rotation_r	knee_angle_r	knee_angle_r_beta	ankle_angle_r	subtalar_angle_r	mtp_angle_r	hip_flexion_l	hip_adduction_l	hip_rotation_l	knee_angle_l	knee_angle_l_beta	ankle_angle_l	subtalar_angle_l	mtp_angle_l	lumbar_extension	lumbar_bending	lumbar_rotation	arm_flex_r	arm_add_r	arm_rot_r	elbow_flex_r	pro_sup_r	arm_flex_l	arm_add_l	arm_rot_l	elbow_flex_l	pro_sup_l
      0.93333330	    -12.20828352	     -1.13997574	     -1.51653957	      0.95284213	      1.40835933	     -0.03283362	      3.57076396	      1.60695396	     -3.56753500	     14.87819943	      0.25967357	      5.82370148	     -8.16570317	     -7.49952480	     10.08964512	     -0.86303223	      4.18669852	     25.47612903	      0.44464233	      8.17258705	      3.77282022	     -7.49952480	     -7.47056203	     -1.58706977	     -1.72101239	     65.87737031	    -46.14180409	     21.92413211	    112.74711450	     81.95226474	     75.06687008	    -35.39366093	     34.31274907	     97.77090213	     87.29865499
      0.95000000	    -12.76612459	     -0.91491855	     -1.69929215	      0.99224895	      1.43354792	     -0.02794482	      2.38658877	      1.08650448	     -4.40263061	     13.17253907	      0.22990418	      1.31685433	     -6.66281638	     -7.49952966	      8.96288590	     -0.90315608	      4.29543440	     23.47367175	      0.40969286	      3.97748405	      3.43882016	     -7.49952966	     -5.45692676	     -1.78498825	     -1.93504102	     64.61795895	    -47.10045402	     23.31613939	    114.30707361	     81.78079976	     74.24125323	    -35.75136157	     34.99037272	     99.27076098	     87.35718050
      0.96666670	    -13.85008288	     -0.98599799	     -1.95867544	      1.01134711	      1.45120952	     -0.02278109	      2.59568207	      0.89329025	     -5.06527130	     12.81571919	      0.22367650	     -3.51930579	     -6.36873346	     -7.49954909	      9.14076009	     -1.36871204	      4.44710826	     22.59173676	      0.39430019	      0.54729094	      3.26942038	     -7.49954909	     -3.39917313	     -1.63214370	     -1.73762571	     63.88440074	    -48.97488077	     24.70881074	    116.85434172	     80.07176123	     73.72991557	    -37.04858566	     36.52293521	    102.16387407	     86.16180238
      0.98333330	    -15.03816324	     -1.18411683	     -1.79883129	      1.02175999	      1.46688586	     -0.02554375	      4.01588263	      0.62314598	     -5.57248446	     13.90895001	      0.24275697	     -8.18529220	     -7.36357771	     -7.49955270	     10.54044234	     -1.96463046	      4.23570090	     22.59100168	      0.39428736	     -2.27613263	      2.81926332	     -7.49955270	     -1.79965142	     -1.37855009	     -1.79725235	     64.50095265	    -50.27220753	     26.47411090	    118.21114950	     78.56901302	     74.35107159	    -37.15246315	     38.15748764	    103.68679527	     85.01148508
      1.00000000	    -16.15399724	     -1.52672811	     -1.69199443	      1.03654600	      1.47989548	     -0.02506571	      7.36507320	      0.24068560	     -6.09277389	     17.80232461	      0.31070918	    -12.48122715	     -9.75995596	     -7.49959525	     12.48047530	     -2.82290397	      3.95626493	     22.88037730	      0.39933792	     -4.82652612	      2.46227464	     -7.49959525	     -0.55225842	     -1.00405064	     -2.02241601	     64.58290485	    -50.65905962	     27.74240613	    119.42616795	     76.37665059	     74.16229510	    -37.87242846	     39.40883593	    105.73048260	     82.66633480
      1.01666670	    -17.20929348	     -1.63477522	     -1.93131292	      1.04201093	      1.49849148	     -0.02469162	     11.22509607	     -0.33012820	     -6.43166505	     21.13392837	      0.36885663	    -14.85039757	    -11.12977213	     -7.49972911	     15.26540642	     -3.65600920	      3.08284332	     23.94370418	      0.41789647	     -8.07553461	      1.76624482	     -7.49972911	      0.17184985	     -0.19015915	     -5.13668070	     69.39963941	    -46.32502842	     34.61155803	    117.50615270	     70.50887048	     72.59393585	    -42.86601212	     38.14974788	    110.39881281	     79.78474545
      1.03333330	    -18.38910963	     -1.73852091	     -2.14983289	      1.05228164	      1.50022952	     -0.02014405	     15.52767332	     -0.73720936	     -7.33807418	     24.15591478	      0.42160025	    -16.20351803	    -12.14569791	     -7.49974642	     18.66199685	     -4.36762425	      2.47418872	     25.05703191	      0.43732771	    -11.97946832	     -0.02724921	     -7.49974642	      0.33815970	     -0.01183317	     -5.30778431	     71.43015231	    -46.20352609	     35.96514535	    118.66080442	     70.33076069	     74.46111210	    -42.83229603	     39.31635540	    111.29955555	     79.32241855
      1.05000000	    -18.63302351	     -2.16179483	     -2.73933568	      1.07434061	      1.50646878	     -0.01301050	     19.18350425	     -0.93370878	     -8.09370062	     27.33897000	      0.47715504	    -17.15763384	    -11.71865595	     -7.49977014	     21.20415385	     -5.41637818	      1.99465960	     25.67527738	      0.44811813	    -14.17773660	     -1.25066976	     -7.49977014	     -0.15807955	      0.27085679	     -5.12010806	     73.77914366	    -45.91255274	     39.19298871	    118.32712210	     69.80927376	     76.97034990	    -43.25458057	     42.02579281	    111.88287624	     78.79661088
      1.06666670	    -18.05157579	     -1.93741844	     -3.70558484	      1.10927780	      1.51025711	     -0.01449260	     20.10737725	     -1.61533652	     -8.46893234	     27.83151615	      0.48575159	    -18.92827043	     -9.47896891	     -7.49977732	     21.09376119	     -5.86115164	      0.71128856	     24.65713537	      0.43034820	    -15.94328962	     -1.67255534	     -7.49977732	     -0.00038397	     -0.05626790	     -4.37227495	     73.56312815	    -45.01073500	     40.33815505	    118.07258125	     69.70635862	     76.27282240	    -42.86217862	     42.79699074	    111.47964001	     78.59622947
      1.08333330	    -17.58745473	     -2.25801410	     -4.43152188	      1.12777404	      1.51100367	     -0.01490472	     20.96625460	     -1.74448141	     -8.90932196	     27.04565252	      0.47203568	    -19.00419899	     -6.78340821	     -7.49979158	     20.33553098	     -6.77508064	     -0.81636908	     21.80898023	      0.38063851	    -17.32548275	     -1.74212603	     -7.49979158	      0.18404998	      0.56773914	     -3.65657600	     74.47163107	    -44.36738690	     43.89293363	    116.56105397	     69.64017372	     75.51428959	    -41.47156609	     43.85423268	    110.53898354	     78.73850620
      1.10000000	    -17.64807739	     -2.67135663	     -4.81031736	      1.13414752	      1.51082796	     -0.01119309	     22.85113786	     -1.66406176	     -9.41957705	     25.94855252	      0.45288768	    -18.40728068	     -4.51393708	     -7.49979556	     21.64165209	     -7.66656384	     -2.33060530	     19.91115388	      0.34751519	    -17.89626832	     -0.79125050	     -7.49979556	     -0.25844332	      0.98770943	     -3.61821735	     74.63811526	    -43.15538408	     44.97079200	    116.19910119	     69.58728502	     76.00631904	    -40.35206541	     44.81447808	    111.04144636	     78.82397417
      1.11666670	    -17.55974966	     -2.99175078	     -4.95284407	      1.14202011	      1.50830460	     -0.01346699	     24.34068283	     -1.90867314	    -10.36333494	     24.26370845	      0.42348160	    -18.28780962	     -1.76255613	     -7.49980923	     22.71174326	     -8.32306170	     -3.07229862	     17.80487617	      0.31075371	    -19.04636432	      0.29810310	     -7.49980923	     -1.28278571	      1.52088195	     -3.91015715	     76.52801919	    -41.48445156	     47.28168441	    114.84602928	     69.09843802	     77.03563390	    -40.71413917	     46.43776686	    110.53151188	     78.78438148
      1.13333330	    -17.64729459	     -3.14473642	     -4.89804815	      1.14909888	      1.50575214	     -0.00984788	     25.62352205	     -1.98969042	    -11.24449392	     21.59276404	      0.37686483	    -18.18329023	      1.84878856	     -7.49981189	     24.53045824	     -8.70584987	     -3.81478680	     16.41923300	      0.28656968	    -20.35834830	      1.25983448	     -7.49981189	     -2.58335791	      1.72496039	     -3.63060682	     77.82962636	    -40.20633208	     48.25298199	    113.69405241	     68.97409562	     78.00664346	    -40.30298986	     47.46214623	    109.61919922	     78.78039617
      1.15000000	    -17.96484489	     -2.91440583	     -5.11823477	      1.15725529	      1.49292930	     -0.01079179	     27.27946270	     -2.32626217	    -11.61960819	     19.45539772	      0.33956075	    -18.82191330	      3.76628449	     -7.49981360	     26.93329007	     -8.74243726	     -4.68887715	     15.75539258	      0.27498348	    -21.72665015	      0.93828985	     -7.49981360	     -4.26126625	      1.41278399	     -3.54524966	     79.14789003	    -39.01126683	     48.82421836	    112.74673052	     68.92092380	     80.05487682	    -39.03919322	     47.98184491	    109.51197065	     78.73330234
